<svg width="16" height="15" viewBox="0 0 16 15" fill="none" xmlns="http://www.w3.org/2000/svg">
<g clip-path="url(#clip0_222_346)">
<path d="M8.00002 0.360718C3.58882 0.360718 2.15004e-05 3.27387 2.15004e-05 6.8547C2.15004e-05 8.1066 0.439221 9.31905 1.27149 10.3672C1.11389 11.9395 0.691488 13.1067 0.0781548 13.6597C-0.00291183 13.7328 -0.0231785 13.8446 0.0280215 13.937C0.0736215 14.0195 0.166688 14.0702 0.266688 14.0702C0.278955 14.0702 0.291488 14.0695 0.304021 14.0678C0.412021 14.0541 2.92082 13.7282 4.73522 12.784C5.76589 13.1589 6.86349 13.3487 8.00002 13.3487C12.4112 13.3487 16 10.4355 16 6.8547C16 3.27387 12.4112 0.360718 8.00002 0.360718Z" fill="black"/>
</g>
<defs>
<clipPath id="clip0_222_346">
<rect width="16" height="14.4311" fill="white"/>
</clipPath>
</defs>
</svg>
