<svg width="38" height="30" viewBox="0 0 38 30" fill="none" xmlns="http://www.w3.org/2000/svg">
<path d="M32.9828 11.168L32.7305 11.0977C32.5672 10.7461 32.3891 10.4062 32.1961 10.0781L32.3148 9.89062C32.8937 9.33984 33.2055 8.64844 33.2055 7.92188C33.2055 7.10156 32.8047 6.32813 32.0625 5.74219L30.682 4.66406C29.9398 4.07813 28.975 3.76172 27.9359 3.76172C27.0156 3.76172 26.1547 4.00781 25.457 4.46484L25.2195 4.55859C24.8039 4.40625 24.3734 4.26563 23.9281 4.13672L23.8391 3.9375C23.6609 2.37891 21.9836 1.14844 19.9648 1.14844H18.0203C16.0016 1.14844 14.3242 2.37891 14.1461 3.9375L14.057 4.13672C13.6117 4.26563 13.1812 4.39453 12.7656 4.55859L12.5133 4.46484C11.8156 4.00781 10.9547 3.76172 10.0344 3.76172C8.99531 3.76172 8.01562 4.07813 7.28828 4.66406L5.90781 5.75391C5.16562 6.33984 4.76484 7.10156 4.76484 7.93359C4.76484 8.66016 5.07656 9.33984 5.65547 9.89062L5.77422 10.0898C5.58125 10.418 5.40312 10.7578 5.23984 11.0977L4.97266 11.168C3.02812 11.3203 1.48438 12.6328 1.48438 14.2266V15.7617C1.48438 17.3555 3.02813 18.6797 5.00234 18.8203L5.26953 18.8906C5.43281 19.2305 5.59609 19.5703 5.80391 19.8984L5.68516 20.0977C5.10625 20.6484 4.79453 21.3281 4.79453 22.0547C4.79453 22.875 5.19531 23.6484 5.9375 24.2227L7.31797 25.3125C8.06016 25.8984 9.025 26.2148 10.0641 26.2148C10.9844 26.2148 11.8453 25.9688 12.543 25.5117L12.7953 25.418C13.2109 25.5703 13.6414 25.7109 14.0719 25.8398L14.1609 26.0508C14.3539 27.6094 16.0164 28.8281 18.0352 28.8281H19.9797C21.9984 28.8281 23.6758 27.5977 23.8539 26.0508L23.943 25.8398C24.3883 25.7109 24.8039 25.582 25.2195 25.418L25.457 25.5117C26.1547 25.9688 27.0156 26.2148 27.9359 26.2148C28.975 26.2148 29.9547 25.8984 30.682 25.3125L32.0625 24.2227C32.8047 23.6367 33.2055 22.875 33.2055 22.0547C33.2055 21.3281 32.8937 20.6367 32.3148 20.0859L32.1961 19.8984C32.3891 19.5703 32.5672 19.2305 32.7305 18.8789L32.9828 18.8086C34.957 18.668 36.5156 17.3438 36.5156 15.75V14.2148C36.5156 12.6328 34.957 11.3086 32.9828 11.168ZM34.007 15.7734C34.007 16.3359 33.4578 16.8164 32.7453 16.8633L32.4633 16.8867L30.7711 17.3203L30.3555 18.2344C30.2219 18.5273 30.0734 18.8086 29.9102 19.0781L29.3906 19.957L30.1922 21.1992L30.3703 21.3633C30.5781 21.5625 30.682 21.8086 30.682 22.0664C30.682 22.3711 30.5336 22.6289 30.2812 22.8398L28.9008 23.9297C28.6336 24.1406 28.2922 24.2461 27.9211 24.2461C27.5945 24.2461 27.2828 24.1641 27.0305 24L26.8078 23.8594L25.2195 23.2266L24.1211 23.6367C23.7797 23.7656 23.4234 23.8828 23.0523 23.9883L21.9094 24.3164L21.3453 25.6523L21.3156 25.875C21.2414 26.4258 20.6328 26.8711 19.9352 26.8711H17.9906C17.2781 26.8711 16.6695 26.4375 16.6102 25.875L16.5805 25.6523L16.0164 24.3164L14.8734 23.9883C14.5172 23.8828 14.1609 23.7656 13.8195 23.6484L12.7211 23.2383L11.118 23.8711L10.8953 24.0234C10.643 24.1875 10.3461 24.2695 10.0195 24.2695C9.64844 24.2695 9.30703 24.1641 9.03984 23.9531L7.65937 22.8633C7.39219 22.6523 7.25859 22.3828 7.25859 22.0898C7.25859 21.832 7.3625 21.5859 7.57031 21.3984L7.76328 21.2227L8.55 19.9688L8.04531 19.1016C7.88203 18.832 7.73359 18.5508 7.61484 18.2695L7.21406 17.3672L5.52187 16.9219L5.23984 16.8984C4.52734 16.8516 3.97812 16.3594 3.97812 15.8086V14.2734C3.97812 13.7109 4.52734 13.2305 5.23984 13.1836L5.52187 13.1602L7.21406 12.7148L7.61484 11.8125C7.74844 11.5313 7.89687 11.25 8.04531 10.9805L8.55 10.125L7.76328 8.87109L7.57031 8.69531C7.3625 8.49609 7.25859 8.26172 7.25859 7.99219C7.25859 7.6875 7.39219 7.42969 7.65937 7.21875L9.03984 6.12891C9.30703 5.91797 9.64844 5.8125 10.0195 5.8125C10.3461 5.8125 10.6578 5.89453 10.8953 6.05859L11.118 6.21094L12.7656 6.76172L13.8641 6.35156C14.2055 6.22266 14.5617 6.10547 14.9328 6L16.0906 5.67188L16.6398 4.33594L16.6695 4.11328C16.7289 3.55078 17.3375 3.11719 18.05 3.11719H19.9945C20.707 3.11719 21.3156 3.55078 21.375 4.11328L21.4047 4.33594L21.9539 5.67188L23.1117 6C23.4828 6.10547 23.8391 6.22266 24.1805 6.35156L25.2937 6.76172L26.8672 6.12891L27.0898 5.98828C27.3422 5.82422 27.6539 5.74219 27.9805 5.74219C28.3516 5.74219 28.693 5.84766 28.9602 6.05859L30.3406 7.14844C30.6078 7.35938 30.7414 7.62891 30.7414 7.92188C30.7414 8.17969 30.6375 8.42578 30.4297 8.625L30.2516 8.80078L29.45 10.043L29.9695 10.9102C30.1328 11.1797 30.2812 11.4727 30.4148 11.7539L30.8305 12.668L32.5227 13.1016L32.8047 13.125C33.5172 13.1719 34.0664 13.6641 34.0664 14.2148L34.007 15.7734Z" fill="black"/>
<path d="M19.0148 11.0391C16.2539 11.0391 14.0273 12.8086 14.0273 14.9766C14.0273 17.1563 16.2688 18.9141 19.0148 18.9141C21.7758 18.9141 24.0023 17.1445 24.0023 14.9766C24.0023 12.7969 21.7758 11.0391 19.0148 11.0391ZM19.0148 16.9453C17.6344 16.9453 16.5211 16.0664 16.5211 14.9766C16.5211 13.8867 17.6344 13.0078 19.0148 13.0078C20.3953 13.0078 21.5086 13.8867 21.5086 14.9766C21.5086 16.0664 20.3953 16.9453 19.0148 16.9453Z" fill="black"/>
</svg>
