<svg width="25" height="25" viewBox="0 0 25 25" fill="none" xmlns="http://www.w3.org/2000/svg">
<path d="M12.034 8.6394C13.0949 8.6394 14.1123 9.06083 14.8624 9.81098C15.6126 10.5611 16.034 11.5785 16.034 12.6394C16.034 13.7003 15.6126 14.7177 14.8624 15.4678C14.1123 16.218 13.0949 16.6394 12.034 16.6394C10.9732 16.6394 9.95574 16.218 9.20559 15.4678C8.45545 14.7177 8.03402 13.7003 8.03402 12.6394C8.03402 11.5785 8.45545 10.5611 9.20559 9.81098C9.95574 9.06083 10.9732 8.6394 12.034 8.6394ZM12.034 10.6394C11.5036 10.6394 10.9949 10.8501 10.6198 11.2252C10.2447 11.6003 10.034 12.109 10.034 12.6394C10.034 13.1698 10.2447 13.6785 10.6198 14.0536C10.9949 14.4287 11.5036 14.6394 12.034 14.6394C12.5645 14.6394 13.0732 14.4287 13.4482 14.0536C13.8233 13.6785 14.034 13.1698 14.034 12.6394C14.034 12.109 13.8233 11.6003 13.4482 11.2252C13.0732 10.8501 12.5645 10.6394 12.034 10.6394ZM10.034 22.6394C9.78402 22.6394 9.57402 22.4594 9.53402 22.2194L9.16402 19.5694C8.53402 19.3194 7.99402 18.9794 7.47402 18.5794L4.98402 19.5894C4.76402 19.6694 4.49402 19.5894 4.37402 19.3694L2.37402 15.9094C2.24402 15.6894 2.30402 15.4194 2.49402 15.2694L4.60402 13.6094L4.53402 12.6394L4.60402 11.6394L2.49402 10.0094C2.30402 9.8594 2.24402 9.5894 2.37402 9.3694L4.37402 5.9094C4.49402 5.6894 4.76402 5.5994 4.98402 5.6894L7.47402 6.6894C7.99402 6.2994 8.53402 5.9594 9.16402 5.7094L9.53402 3.0594C9.57402 2.8194 9.78402 2.6394 10.034 2.6394H14.034C14.284 2.6394 14.494 2.8194 14.534 3.0594L14.904 5.7094C15.534 5.9594 16.074 6.2994 16.594 6.6894L19.084 5.6894C19.304 5.5994 19.574 5.6894 19.694 5.9094L21.694 9.3694C21.824 9.5894 21.764 9.8594 21.574 10.0094L19.464 11.6394L19.534 12.6394L19.464 13.6394L21.574 15.2694C21.764 15.4194 21.824 15.6894 21.694 15.9094L19.694 19.3694C19.574 19.5894 19.304 19.6794 19.084 19.5894L16.594 18.5894C16.074 18.9794 15.534 19.3194 14.904 19.5694L14.534 22.2194C14.494 22.4594 14.284 22.6394 14.034 22.6394H10.034ZM11.284 4.6394L10.914 7.2494C9.71402 7.4994 8.65402 8.1394 7.88402 9.0294L5.47402 7.9894L4.72402 9.2894L6.83402 10.8394C6.43402 12.0094 6.43402 13.2794 6.83402 14.4394L4.71402 15.9994L5.46402 17.2994L7.89402 16.2594C8.66402 17.1394 9.71402 17.7794 10.904 18.0194L11.274 20.6394H12.794L13.164 18.0294C14.354 17.7794 15.404 17.1394 16.174 16.2594L18.604 17.2994L19.354 15.9994L17.234 14.4494C17.634 13.2794 17.634 12.0094 17.234 10.8394L19.344 9.2894L18.594 7.9894L16.184 9.0294C15.414 8.1394 14.354 7.4994 13.154 7.2594L12.784 4.6394H11.284Z" fill="black"/>
</svg>
