<svg width="18" height="12" viewBox="0 0 18 12" fill="none" xmlns="http://www.w3.org/2000/svg">
<path d="M13.2212 0H2.75243C2.52125 0 2.33369 0.125062 2.33369 0.279159V4.4528H2.90965C2.73648 4.30539 2.64243 4.12477 2.64243 3.93467C2.64222 3.7095 2.77388 3.49782 3.01284 3.33865C3.062 3.30588 3.11568 3.27669 3.17138 3.24998V0.558341H12.8024V0.758906L8.40562 2.88713V12L12.8264 9.86017C12.8826 9.97018 13.0372 10.0499 13.2212 10.0499C13.4524 10.0499 13.6399 9.92479 13.6399 9.77077V0.279159C13.6399 0.124924 13.4524 0 13.2212 0ZM10.0667 7.65578C9.86915 7.65578 9.70456 7.49329 9.66225 7.27561H9.19076V7.03134H9.66879C9.71888 6.82702 9.87693 6.67666 10.0663 6.67666C10.2959 6.67666 10.4817 6.8957 10.4817 7.16628C10.4822 7.43658 10.2961 7.65578 10.0667 7.65578ZM3.01301 7.25216C3.06227 7.28472 3.11565 7.31391 3.17117 7.34034V9.77077C3.17117 9.92482 2.98347 10.0499 2.75243 10.0499C2.52125 10.0499 2.33369 9.92479 2.33369 9.77077V6.13755H2.90965C2.5227 6.46795 2.55685 6.94774 3.01301 7.25216ZM6.00814 5.03627C6.17477 5.14736 6.17477 5.32703 6.00814 5.43812L3.96738 6.79877C3.88425 6.85398 3.77518 6.8819 3.66611 6.88204C3.55704 6.8819 3.44794 6.85423 3.36482 6.79877C3.19839 6.68768 3.1986 6.50789 3.36482 6.39706L4.67842 5.52126H0.426003C0.190672 5.52126 0 5.39414 0 5.23725C0 5.08037 0.190465 4.95318 0.42621 4.95318H4.67818L3.36478 4.07745C3.19857 3.96664 3.19836 3.78669 3.36478 3.67588C3.53124 3.56491 3.80113 3.56491 3.96755 3.67588L6.00814 5.03627Z" fill="black"/>
</svg>
