<svg width="25" height="25" viewBox="0 0 25 25" fill="none" xmlns="http://www.w3.org/2000/svg">
<path d="M17.2397 6.39499L15.7897 7.84499C17.5197 8.89499 18.6797 10.785 18.6797 12.955C18.6797 14.5463 18.0475 16.0724 16.9223 17.1976C15.7971 18.3228 14.271 18.955 12.6797 18.955C11.0884 18.955 9.56227 18.3228 8.43705 17.1976C7.31183 16.0724 6.67969 14.5463 6.67969 12.955C6.67969 10.785 7.83969 8.89499 9.55969 7.83499L8.11969 6.39499C6.03969 7.83499 4.67969 10.235 4.67969 12.955C4.67969 15.0767 5.52254 17.1116 7.02283 18.6118C8.52312 20.1121 10.558 20.955 12.6797 20.955C14.8014 20.955 16.8363 20.1121 18.3365 18.6118C19.8368 17.1116 20.6797 15.0767 20.6797 12.955C20.6797 10.235 19.3197 7.83499 17.2397 6.39499ZM13.6797 3.95499H11.6797V13.955H13.6797" fill="black"/>
</svg>
